<?xml version="1.0" encoding="iso-8859-1"?>

<svg version="1.1" id="Layer_1" xmlns="http://www.w3.org/2000/svg" xmlns:xlink="http://www.w3.org/1999/xlink" x="0px" y="0px"
	 viewBox="0 0 32 32" style="enable-background:new 0 0 32 32;" xml:space="preserve">
	<style>
		.sq {fill:currentColor;}
	</style>
<polyline style="fill:none;stroke:currentColor;stroke-width:2;stroke-miterlimit:10;" points="6,28 6,5 26,5 26,19 6,19 "/>
<rect x="22" y="5" width="4" height="4" class="sq"/>
<rect x="19" y="15" width="3" height="4" class="sq"/>
<rect x="19" y="9" width="3" height="3" class="sq"/>
<rect x="13" y="15" width="3" height="4" class="sq"/>
<rect x="13" y="9" width="3" height="3" class="sq"/>
<rect x="6" y="15" width="4" height="4" class="sq"/>
<rect x="6" y="9" width="4" height="3" class="sq"/>
<rect x="22" y="12" width="4" height="3" class="sq"/>
<rect x="16" y="12" width="3" height="3" class="sq"/>
<rect x="10" y="12" width="3" height="3" class="sq"/>
<rect x="16" y="5" width="3" height="4" class="sq"/>
<rect x="10" y="5" width="3" height="4" class="sq"/>
</svg>
