<?xml version="1.0"?>
<svg xmlns="http://www.w3.org/2000/svg" viewBox="0 0 24 24">
    <path d="M 9 2 C 5.134 2 2 4.239 2 7 L 2 20 C 2 21.105 2.895 22 4 22 L 14 22 C 15.105 22 16 21.105 16 20 L 16 7 C 16 4.239 12.866 2 9 2 z M 20.03125 4 C 19.876266 3.9967051 19.72425 3.997375 19.5625 4.03125 C 18.8375 4.18325 18.2385 4.78 18.0625 5.5 C 17.8325 6.445 18.273 7.29575 19 7.71875 L 19 12 C 19 12.552 18.552 13 18 13 L 17 13 L 17 15 L 19 15 C 20.105 15 21 14.105 21 13 L 21 7.71875 C 21.595 7.37175 22 6.738 22 6 C 22 4.90975 21.116141 4.0230645 20.03125 4 z M 5 7 L 13 7 C 13.552 7 14 7.448 14 8 L 14 12 C 14 12.552 13.552 13 13 13 L 5 13 C 4.448 13 4 12.552 4 12 L 4 8 C 4 7.448 4.448 7 5 7 z M 5 8 L 5 12 L 7 12 L 7 8 L 5 8 z M 8 8 L 8 12 L 10 12 L 10 8 L 8 8 z M 11 8 L 11 12 L 13 12 L 13 8 L 11 8 z M 6 16 L 12 16 L 14 19 L 4 19 L 6 16 z"/>
</svg>
